<svg version="1.1" viewBox="0.0 0.0 3000.0 2000.0" fill="none" stroke="none" stroke-linecap="square" stroke-miterlimit="10" xmlns:xlink="http://www.w3.org/1999/xlink" xmlns="http://www.w3.org/2000/svg"><clipPath id="p.0"><path d="m0 0l3000.0 0l0 2000.0l-3000.0 0l0 -2000.0z" clip-rule="nonzero"/></clipPath><g clip-path="url(#p.0)"><path fill="#000000" fill-opacity="0.0" d="m0 0l3000.0 0l0 2000.0l-3000.0 0z" fill-rule="evenodd"/><path fill="#fff1e9" d="m-642.0866 -299.00787l429.4173 0l0 628.126l-429.4173 0z" fill-rule="evenodd"/><path stroke="#000000" stroke-width="1.0" stroke-linejoin="round" stroke-linecap="butt" d="m-642.0866 -299.00787l429.4173 0l0 628.126l-429.4173 0z" fill-rule="evenodd"/><g filter="url(#shadowFilter-p.1)"><use xlink:href="#p.1" transform="matrix(1.0 0.0 0.0 1.0 9.785723359580052 16.286178740157606)"/></g><defs><filter id="shadowFilter-p.1" filterUnits="userSpaceOnUse"><feGaussianBlur in="SourceAlpha" stdDeviation="60.0" result="blur"/><feComponentTransfer in="blur" color-interpolation-filters="sRGB"><feFuncR type="linear" slope="0" intercept="0.0"/><feFuncG type="linear" slope="0" intercept="0.0"/><feFuncB type="linear" slope="0" intercept="0.0"/><feFuncA type="linear" slope="0.15" intercept="0"/></feComponentTransfer></filter></defs><g id="p.1"><path fill="#fff1e9" fill-opacity="0.5" d="m1985.4121 827.5381l0 0c0 -540.9347 -438.51416 -979.44885 -979.44885 -979.44885l0 0c-259.766 0 -508.8926 103.191635 -692.5749 286.8739c-183.6823 183.6823 -286.87393 432.80896 -286.87393 692.57495l0 0c0 540.9346 438.51416 979.4487 979.44885 979.4487l0 0c540.9347 0 979.44885 -438.51416 979.44885 -979.4487z" fill-rule="evenodd"/></g><g filter="url(#shadowFilter-p.2)"><use xlink:href="#p.2" transform="matrix(1.0 0.0 0.0 1.0 9.785723359580091 16.286178740157606)"/></g><defs><filter id="shadowFilter-p.2" filterUnits="userSpaceOnUse"><feGaussianBlur in="SourceAlpha" stdDeviation="60.0" result="blur"/><feComponentTransfer in="blur" color-interpolation-filters="sRGB"><feFuncR type="linear" slope="0" intercept="0.0"/><feFuncG type="linear" slope="0" intercept="0.0"/><feFuncB type="linear" slope="0" intercept="0.0"/><feFuncA type="linear" slope="0.15" intercept="0"/></feComponentTransfer></filter></defs><g id="p.2"><path fill="#fff1e9" fill-opacity="0.3" d="m2325.5303 1384.3727l0 0c0 -269.3584 -218.35815 -487.7165 -487.71667 -487.7165l0 0c-129.35046 0 -253.40308 51.384277 -344.86768 142.84882c-91.46448 91.4646 -142.84875 215.51721 -142.84875 344.86768l0 0c0 269.3584 218.35803 487.71655 487.71643 487.71655l0 0c269.35852 0 487.71667 -218.35815 487.71667 -487.71655z" fill-rule="evenodd"/></g><g filter="url(#shadowFilter-p.3)"><use xlink:href="#p.3" transform="matrix(1.0 0.0 0.0 1.0 9.785723359580091 16.286178740157453)"/></g><defs><filter id="shadowFilter-p.3" filterUnits="userSpaceOnUse"><feGaussianBlur in="SourceAlpha" stdDeviation="60.0" result="blur"/><feComponentTransfer in="blur" color-interpolation-filters="sRGB"><feFuncR type="linear" slope="0" intercept="0.0"/><feFuncG type="linear" slope="0" intercept="0.0"/><feFuncB type="linear" slope="0" intercept="0.0"/><feFuncA type="linear" slope="0.15" intercept="0"/></feComponentTransfer></filter></defs><g id="p.3"><path fill="#fff1e9" fill-opacity="0.45" d="m2795.6746 691.0761l0 0c0 -354.8799 -287.687 -642.5669 -642.5669 -642.5669l0 0c-170.41943 0 -333.85876 67.69882 -454.36353 188.20349c-120.50464 120.50467 -188.20349 283.94412 -188.20349 454.36343l0 0c0 354.87994 287.687 642.56696 642.567 642.56696l0 0c354.87988 0 642.5669 -287.687 642.5669 -642.56696z" fill-rule="evenodd"/></g><g filter="url(#shadowFilter-p.4)"><use xlink:href="#p.4" transform="matrix(1.0 0.0 0.0 1.0 9.785723359580091 16.286178740157606)"/></g><defs><filter id="shadowFilter-p.4" filterUnits="userSpaceOnUse"><feGaussianBlur in="SourceAlpha" stdDeviation="60.0" result="blur"/><feComponentTransfer in="blur" color-interpolation-filters="sRGB"><feFuncR type="linear" slope="0" intercept="0.0"/><feFuncG type="linear" slope="0" intercept="0.0"/><feFuncB type="linear" slope="0" intercept="0.0"/><feFuncA type="linear" slope="0.15" intercept="0"/></feComponentTransfer></filter></defs><g id="p.4"><path fill="#fff1e9" fill-opacity="0.3" d="m3552.9895 1113.7953l0 0c0 -460.49243 -373.30298 -833.7953 -833.79517 -833.7953l0 0c-221.13647 0 -433.21558 87.84604 -589.5825 244.21295c-156.36682 156.367 -244.21289 368.44604 -244.21289 589.58234l0 0c0 460.49243 373.30298 833.7953 833.7954 833.7953l0 0c460.4922 0 833.79517 -373.30286 833.79517 -833.7953z" fill-rule="evenodd"/></g><path fill="#ff5e00" d="m-928.35693 550.0l358.2047 0l0 358.2047l-358.2047 0z" fill-rule="evenodd"/><path stroke="#000000" stroke-width="1.0" stroke-linejoin="round" stroke-linecap="butt" d="m-928.35693 550.0l358.2047 0l0 358.2047l-358.2047 0z" fill-rule="evenodd"/><g filter="url(#shadowFilter-p.5)"><use xlink:href="#p.5" transform="matrix(1.0 0.0 0.0 1.0 9.785723359580091 16.286178740157606)"/></g><defs><filter id="shadowFilter-p.5" filterUnits="userSpaceOnUse"><feGaussianBlur in="SourceAlpha" stdDeviation="60.0" result="blur"/><feComponentTransfer in="blur" color-interpolation-filters="sRGB"><feFuncR type="linear" slope="0" intercept="0.0"/><feFuncG type="linear" slope="0" intercept="0.0"/><feFuncB type="linear" slope="0" intercept="0.0"/><feFuncA type="linear" slope="0.15" intercept="0"/></feComponentTransfer></filter></defs><g id="p.5"><path fill="#fff1e9" fill-opacity="0.45" d="m1029.1732 1542.5459l0 0c0 -399.78455 -324.08942 -723.87396 -723.874 -723.87396l0 0c-191.98334 0 -376.10352 76.265076 -511.85623 212.01776c-135.75272 135.75269 -212.01779 319.87292 -212.01779 511.8562l0 0c0 399.78467 324.08942 723.874 723.874 723.874l0 0c399.78458 0 723.874 -324.08936 723.874 -723.874z" fill-rule="evenodd"/></g></g></svg>